<svg xmlns="http://www.w3.org/2000/svg" width="15" height="15" viewBox="0 0 15 15" fill="#A9A9A9">
  <path d="M10.8592 6.692L12.5666 5.08536L12.5766 5.0754C12.9282 4.72373 13.1258 4.24676 13.1258 3.74942C13.1258 3.25208 12.9282 2.77511 12.5766 2.42344C12.2249 2.07177 11.7479 1.87421 11.2506 1.87421C10.7533 1.87421 10.2763 2.07177 9.92461 2.42344C9.92461 2.42696 9.91817 2.42989 9.91465 2.4334L8.30801 4.14083L3.44473 2.3713C3.36091 2.34081 3.27013 2.33487 3.18305 2.35417C3.09598 2.37348 3.01621 2.41723 2.95313 2.48028L1.54688 3.88653C1.49788 3.93557 1.46036 3.99487 1.43704 4.06016C1.41372 4.12545 1.40517 4.19509 1.412 4.26408C1.41884 4.33307 1.4409 4.39969 1.47658 4.45913C1.51226 4.51857 1.56069 4.56935 1.61836 4.60782L5.36192 7.10333L4.49356 7.96876H3.28125C3.1571 7.96881 3.03804 8.01812 2.9502 8.10587L1.54395 9.51212C1.48911 9.56682 1.44868 9.63427 1.42628 9.70843C1.40388 9.78258 1.4002 9.86113 1.41558 9.93705C1.43097 10.013 1.46492 10.0839 1.51442 10.1435C1.56392 10.2031 1.62741 10.2495 1.69922 10.2785L3.85664 11.1416L4.71797 13.2949L4.72149 13.3043C4.75129 13.3764 4.79862 13.44 4.8592 13.4892C4.91977 13.5384 4.99168 13.5717 5.06838 13.5861C5.14509 13.6004 5.22417 13.5954 5.29845 13.5715C5.37273 13.5476 5.43986 13.5055 5.49375 13.449L6.89239 12.0498C6.93615 12.0065 6.97094 11.9549 6.99477 11.8981C7.0186 11.8413 7.031 11.7804 7.03125 11.7188V10.5065L7.8961 9.64161L10.3916 13.3852C10.4301 13.4428 10.4809 13.4913 10.5403 13.5269C10.5997 13.5626 10.6664 13.5847 10.7353 13.5915C10.8043 13.5984 10.874 13.5898 10.9393 13.5665C11.0046 13.5432 11.0639 13.5056 11.1129 13.4566L12.5191 12.0504C12.5822 11.9873 12.6259 11.9076 12.6453 11.8205C12.6646 11.7334 12.6586 11.6426 12.6281 11.5588L10.8592 6.692ZM10.8551 12.3891L8.35957 8.6461C8.32132 8.58798 8.27061 8.53911 8.21111 8.50303C8.15162 8.46695 8.08485 8.44457 8.01563 8.43751C7.99981 8.43751 7.98457 8.43751 7.96934 8.43751C7.90772 8.43753 7.84672 8.44971 7.78981 8.47334C7.73291 8.49696 7.68122 8.53158 7.6377 8.5752L6.23145 9.98145C6.14349 10.0692 6.09397 10.1883 6.09375 10.3125V11.5248L5.32793 12.2906L4.65411 10.6055C4.63053 10.547 4.59539 10.4938 4.55079 10.4492C4.50618 10.4046 4.45304 10.3695 4.39454 10.3459L2.71055 9.67208L3.47579 8.90626H4.6875C4.74908 8.9063 4.81006 8.89422 4.86697 8.8707C4.92387 8.84717 4.97558 8.81266 5.01915 8.76915L6.4254 7.3629C6.4745 7.31385 6.51211 7.25451 6.5355 7.18917C6.55888 7.12382 6.56747 7.0541 6.56063 6.98503C6.55379 6.91596 6.5317 6.84927 6.49595 6.78978C6.4602 6.73029 6.41169 6.67948 6.35391 6.64102L2.61094 4.14493L3.40196 3.3545L8.27813 5.12755C8.36404 5.15911 8.45732 5.16484 8.54645 5.14401C8.63558 5.12319 8.71666 5.07673 8.77969 5.01036L10.5926 3.08204C10.7693 2.9105 11.0064 2.81538 11.2526 2.81724C11.4989 2.81909 11.7345 2.91777 11.9086 3.09195C12.0827 3.26612 12.1813 3.50181 12.1831 3.74807C12.1848 3.99433 12.0896 4.23139 11.918 4.40801L9.992 6.22032C9.92563 6.28335 9.87916 6.36443 9.85834 6.45356C9.83752 6.54269 9.84324 6.63597 9.87481 6.72188L11.6479 11.5981L10.8551 12.3891Z" fill="#A9A9A9"/>
</svg>