<svg width="15" height="15" viewBox="0 0 15 15" fill="none" xmlns="http://www.w3.org/2000/svg">
<path d="M14.8869 6.25723L12.2186 3.14824C12.1306 3.04312 12.0206 2.95857 11.8964 2.90056C11.7721 2.84255 11.6367 2.81249 11.4996 2.8125H1.875C1.62636 2.8125 1.3879 2.91127 1.21209 3.08709C1.03627 3.2629 0.9375 3.50136 0.9375 3.75V10.3125C0.9375 10.5611 1.03627 10.7996 1.21209 10.9754C1.3879 11.1512 1.62636 11.25 1.875 11.25H2.87109C2.97436 11.6533 3.20892 12.0108 3.5378 12.2661C3.86668 12.5214 4.27117 12.6599 4.6875 12.6599C5.10383 12.6599 5.50832 12.5214 5.8372 12.2661C6.16608 12.0108 6.40064 11.6533 6.50391 11.25H9.43359C9.53686 11.6533 9.77142 12.0108 10.1003 12.2661C10.4292 12.5214 10.8337 12.6599 11.25 12.6599C11.6663 12.6599 12.0708 12.5214 12.3997 12.2661C12.7286 12.0108 12.9631 11.6533 13.0664 11.25H14.0625C14.3111 11.25 14.5496 11.1512 14.7254 10.9754C14.9012 10.7996 15 10.5611 15 10.3125V6.5625C15 6.4505 14.9599 6.34221 14.8869 6.25723ZM13.5111 6.09375H10.3125V3.75H11.4996L13.5111 6.09375ZM6.09375 6.09375V3.75H9.375V6.09375H6.09375ZM5.15625 3.75V6.09375H1.875V3.75H5.15625ZM4.6875 11.7188C4.50208 11.7188 4.32082 11.6638 4.16665 11.5608C4.01248 11.4577 3.89232 11.3113 3.82136 11.14C3.75041 10.9687 3.73184 10.7802 3.76801 10.5984C3.80419 10.4165 3.89348 10.2494 4.02459 10.1183C4.1557 9.98723 4.32275 9.89794 4.5046 9.86176C4.68646 9.82559 4.87496 9.84416 5.04627 9.91511C5.21757 9.98607 5.36399 10.1062 5.467 10.2604C5.57002 10.4146 5.625 10.5958 5.625 10.7812C5.625 11.0299 5.52623 11.2683 5.35041 11.4442C5.1746 11.62 4.93614 11.7188 4.6875 11.7188ZM11.25 11.7188C11.0646 11.7188 10.8833 11.6638 10.7292 11.5608C10.575 11.4577 10.4548 11.3113 10.3839 11.14C10.3129 10.9687 10.2943 10.7802 10.3305 10.5984C10.3667 10.4165 10.456 10.2494 10.5871 10.1183C10.7182 9.98723 10.8852 9.89794 11.0671 9.86176C11.249 9.82559 11.4375 9.84416 11.6088 9.91511C11.7801 9.98607 11.9265 10.1062 12.0295 10.2604C12.1325 10.4146 12.1875 10.5958 12.1875 10.7812C12.1875 11.0299 12.0887 11.2683 11.9129 11.4442C11.7371 11.62 11.4986 11.7188 11.25 11.7188ZM13.0664 10.3125C12.9631 9.90918 12.7286 9.5517 12.3997 9.29642C12.0708 9.04114 11.6663 8.90257 11.25 8.90257C10.8337 8.90257 10.4292 9.04114 10.1003 9.29642C9.77142 9.5517 9.53686 9.90918 9.43359 10.3125H6.50391C6.40064 9.90918 6.16608 9.5517 5.8372 9.29642C5.50832 9.04114 5.10383 8.90257 4.6875 8.90257C4.27117 8.90257 3.86668 9.04114 3.5378 9.29642C3.20892 9.5517 2.97436 9.90918 2.87109 10.3125H1.875V7.03125H14.0625V10.3125H13.0664Z" fill="#A9A9A9"/>
</svg>
