<svg width="15" height="15" viewBox="0 0 15 15" fill="none" xmlns="http://www.w3.org/2000/svg">
<path d="M14.0625 6.5625H12.3814L9.84375 4.02481C9.75701 3.93738 9.65376 3.86806 9.53999 3.82088C9.42622 3.7737 9.30421 3.74961 9.18106 3.75H2.59453C2.44054 3.75029 2.289 3.7885 2.15328 3.86126C2.01757 3.93403 1.90187 4.0391 1.81641 4.16719L0.0785156 6.7711C0.0274523 6.84827 0.000152846 6.93872 0 7.03126L0 9.84376C0 10.0924 0.0987721 10.3309 0.274587 10.5067C0.450403 10.6825 0.68886 10.7813 0.9375 10.7813H1.93359C2.03686 11.1846 2.27142 11.5421 2.6003 11.7973C2.92918 12.0526 3.33367 12.1912 3.75 12.1912C4.16633 12.1912 4.57082 12.0526 4.8997 11.7973C5.22858 11.5421 5.46314 11.1846 5.56641 10.7813H9.43359C9.53686 11.1846 9.77142 11.5421 10.1003 11.7973C10.4292 12.0526 10.8337 12.1912 11.25 12.1912C11.6663 12.1912 12.0708 12.0526 12.3997 11.7973C12.7286 11.5421 12.9631 11.1846 13.0664 10.7813H14.0625C14.3111 10.7813 14.5496 10.6825 14.7254 10.5067C14.9012 10.3309 15 10.0924 15 9.84376V7.50001C15 7.25136 14.9012 7.01291 14.7254 6.83709C14.5496 6.66128 14.3111 6.5625 14.0625 6.5625ZM2.59453 4.6875H9.18106L11.0561 6.5625H1.34766L2.59453 4.6875ZM3.75 11.25C3.56458 11.25 3.38332 11.195 3.22915 11.092C3.07498 10.989 2.95482 10.8426 2.88386 10.6713C2.81291 10.5 2.79434 10.3115 2.83051 10.1296C2.86669 9.94775 2.95598 9.7807 3.08709 9.64959C3.2182 9.51848 3.38525 9.42919 3.5671 9.39302C3.74896 9.35685 3.93746 9.37541 4.10877 9.44637C4.28007 9.51733 4.42649 9.63749 4.5295 9.79166C4.63252 9.94583 4.6875 10.1271 4.6875 10.3125C4.6875 10.5611 4.58873 10.7996 4.41291 10.9754C4.2371 11.1512 3.99864 11.25 3.75 11.25ZM11.25 11.25C11.0646 11.25 10.8833 11.195 10.7292 11.092C10.575 10.989 10.4548 10.8426 10.3839 10.6713C10.3129 10.5 10.2943 10.3115 10.3305 10.1296C10.3667 9.94775 10.456 9.7807 10.5871 9.64959C10.7182 9.51848 10.8852 9.42919 11.0671 9.39302C11.249 9.35685 11.4375 9.37541 11.6088 9.44637C11.7801 9.51733 11.9265 9.63749 12.0295 9.79166C12.1325 9.94583 12.1875 10.1271 12.1875 10.3125C12.1875 10.5611 12.0887 10.7996 11.9129 10.9754C11.7371 11.1512 11.4986 11.25 11.25 11.25ZM14.0625 9.84376H13.0664C12.9631 9.44044 12.7286 9.08296 12.3997 8.82767C12.0708 8.57239 11.6663 8.43383 11.25 8.43383C10.8337 8.43383 10.4292 8.57239 10.1003 8.82767C9.77142 9.08296 9.53686 9.44044 9.43359 9.84376H5.56641C5.46314 9.44044 5.22858 9.08296 4.8997 8.82767C4.57082 8.57239 4.16633 8.43383 3.75 8.43383C3.33367 8.43383 2.92918 8.57239 2.6003 8.82767C2.27142 9.08296 2.03686 9.44044 1.93359 9.84376H0.9375V7.50001H14.0625V9.84376Z" fill="#A9A9A9"/>
</svg>
