<svg width="15" height="15" viewBox="0 0 15 15" fill="none" xmlns="http://www.w3.org/2000/svg">
<g clip-path="url(#clip0_58_306)">
<path d="M10.7812 1.40625H4.21875C3.72147 1.40625 3.24456 1.60379 2.89292 1.95542C2.54129 2.30706 2.34375 2.78397 2.34375 3.28125V10.7812C2.34375 11.2785 2.54129 11.7554 2.89292 12.1071C3.24456 12.4587 3.72147 12.6562 4.21875 12.6562H4.6875L3.84375 13.7812C3.80682 13.8305 3.77994 13.8865 3.76467 13.9462C3.74939 14.0058 3.74601 14.0679 3.75471 14.1288C3.76342 14.1897 3.78404 14.2484 3.8154 14.3013C3.84677 14.3543 3.88825 14.4006 3.9375 14.4375C3.98675 14.4744 4.04278 14.5013 4.10241 14.5166C4.16205 14.5319 4.2241 14.5352 4.28504 14.5265C4.34598 14.5178 4.40461 14.4972 4.45758 14.4658C4.51054 14.4345 4.55682 14.393 4.59375 14.3438L5.85938 12.6562H9.14062L10.4062 14.3438C10.4808 14.4432 10.5919 14.509 10.715 14.5265C10.838 14.5441 10.963 14.5121 11.0625 14.4375C11.162 14.3629 11.2277 14.2519 11.2453 14.1288C11.2629 14.0057 11.2308 13.8807 11.1562 13.7812L10.3125 12.6562H10.7812C11.2785 12.6562 11.7554 12.4587 12.1071 12.1071C12.4587 11.7554 12.6562 11.2785 12.6562 10.7812V3.28125C12.6562 2.78397 12.4587 2.30706 12.1071 1.95542C11.7554 1.60379 11.2785 1.40625 10.7812 1.40625ZM3.28125 7.03125V4.6875H7.03125V7.03125H3.28125ZM7.96875 4.6875H11.7188V7.03125H7.96875V4.6875ZM4.21875 2.34375H10.7812C11.0299 2.34375 11.2683 2.44252 11.4442 2.61834C11.62 2.79415 11.7188 3.03261 11.7188 3.28125V3.75H3.28125V3.28125C3.28125 3.03261 3.38002 2.79415 3.55584 2.61834C3.73165 2.44252 3.97011 2.34375 4.21875 2.34375ZM10.7812 11.7188H4.21875C3.97011 11.7188 3.73165 11.62 3.55584 11.4442C3.38002 11.2683 3.28125 11.0299 3.28125 10.7812V7.96875H11.7188V10.7812C11.7188 11.0299 11.62 11.2683 11.4442 11.4442C11.2683 11.62 11.0299 11.7188 10.7812 11.7188ZM5.625 10.0781C5.625 10.2172 5.58376 10.3531 5.5065 10.4688C5.42924 10.5844 5.31943 10.6745 5.19095 10.7277C5.06247 10.7809 4.92109 10.7949 4.7847 10.7677C4.64831 10.7406 4.52302 10.6736 4.42469 10.5753C4.32636 10.477 4.25939 10.3517 4.23226 10.2153C4.20513 10.0789 4.21905 9.93753 4.27227 9.80905C4.32549 9.68057 4.41561 9.57076 4.53124 9.4935C4.64687 9.41624 4.78281 9.375 4.92188 9.375C5.10836 9.375 5.2872 9.44908 5.41906 9.58094C5.55092 9.7128 5.625 9.89164 5.625 10.0781ZM10.7812 10.0781C10.7812 10.2172 10.74 10.3531 10.6628 10.4688C10.5855 10.5844 10.4757 10.6745 10.3472 10.7277C10.2187 10.7809 10.0773 10.7949 9.94095 10.7677C9.80456 10.7406 9.67927 10.6736 9.58094 10.5753C9.48261 10.477 9.41564 10.3517 9.38851 10.2153C9.36138 10.0789 9.3753 9.93753 9.42852 9.80905C9.48174 9.68057 9.57186 9.57076 9.68749 9.4935C9.80312 9.41624 9.93906 9.375 10.0781 9.375C10.2646 9.375 10.4434 9.44908 10.5753 9.58094C10.7072 9.7128 10.7812 9.89164 10.7812 10.0781Z" fill="#A9A9A9"/>
</g>
<defs>
<clipPath id="clip0_58_306">
<rect width="15" height="15" fill="white"/>
</clipPath>
</defs>
</svg>
